Jump_normalized_Motion_pl08
version=1
nRows=14
nColumns=43
inDegrees=yes
endheader
time		pelvis_tilt		pelvis_list		pelvis_rotation		pelvis_tx		pelvis_ty		pelvis_tz		hip_flexion_r		hip_adduction_r		hip_rotation_r		knee_angle_r		ankle_angle_r		subtalar_angle_r		mtp_angle_r		hip_flexion_l		hip_adduction_l		hip_rotation_l		knee_angle_l		ankle_angle_l		subtalar_angle_l		mtp_angle_l		lumbar_extension		lumbar_bending		lumbar_rotation		neck_flexion		neck_lateral_bending		neck_rotation		arm_flex_r		arm_add_r		arm_rot_r		elbow_flex_r		pro_sup_r		wrist_flex_r		wrist_dev_r		hand_finger_flex_r		arm_flex_l		arm_add_l		arm_rot_l		elbow_flex_l		pro_sup_l		wrist_flex_l		wrist_dev_l		hand_finger_flex_l		
0.002500		-1.176570		-5.517178		88.176462		0.067230		1.739421		1.868054		86.241039		-2.732872		4.954559		-153.101441		23.912695		1.167171		11.289977		82.969970		-7.939315		18.195764		-151.681235		21.110691		31.147418		22.636118		-53.648481		-4.246587		2.745731		34.412297		1.173416		-7.280696		38.245726		-25.890678		-5.706469		77.617978		98.442110		-2.101855		-10.572971		-3.670225		51.346847		-20.538144		8.156261		53.622268		114.436735		-21.065959		-12.648484		27.378653		
0.004924		-1.172287		-5.721778		88.184741		0.067325		1.739470		1.866847		86.254432		-2.732922		4.936751		-153.077621		23.951050		1.209988		11.296596		82.952752		-8.007916		18.208679		-151.625300		21.156893		31.228882		22.637499		-53.497056		-4.230374		2.685617		34.691024		1.189777		-7.218552		39.411630		-26.098513		-5.339427		77.739758		98.644517		-1.964485		-10.541752		-3.611291		52.365879		-20.634672		8.401704		53.639275		114.500299		-20.971735		-12.638406		27.417156		
0.007348		-1.149839		-5.930816		88.199833		0.067401		1.739514		1.865628		86.265382		-2.723533		4.907862		-153.039196		23.981630		1.249446		11.301772		82.941314		-8.076990		18.222107		-151.576085		21.218687		31.317482		22.634408		-53.332573		-4.193556		2.670663		34.843110		1.145487		-7.153699		40.571901		-26.349500		-4.946043		77.869509		98.864267		-1.880545		-10.496319		-3.578056		53.436708		-20.745691		8.810572		53.619062		114.657927		-20.890666		-12.599820		27.448230		
0.009773		-1.113057		-6.100242		88.218772		0.067453		1.739554		1.864379		86.213921		-2.710347		4.868714		-153.005333		24.014288		1.281115		11.305655		82.881423		-8.118433		18.273791		-151.526254		21.308650		31.456686		22.616604		-53.181219		-4.139901		2.689753		34.801150		1.077768		-7.079063		41.720866		-26.668827		-4.486308		78.029148		99.163424		-1.911398		-10.445429		-3.585482		54.559617		-20.929369		9.494929		53.571683		114.921734		-20.938417		-12.534715		27.448680		
0.012197		-1.086178		-6.313630		88.225650		0.067470		1.739713		1.863091		86.191206		-2.699324		4.812341		-152.941552		24.005106		1.302559		11.304780		82.849926		-8.172741		18.266608		-151.444070		21.342552		31.515893		22.608381		-53.028195		-4.109681		2.706144		35.063999		1.075175		-7.079647		42.864238		-26.822141		-4.240012		78.174547		99.288764		-1.914053		-10.425556		-3.588145		55.647281		-20.887635		9.747919		53.508752		115.045345		-20.969302		-12.455905		27.425140		
0.014621		-1.036602		-6.473424		88.244429		0.067491		1.739781		1.861729		86.140512		-2.695339		4.758298		-152.914045		24.019053		1.270181		11.303246		82.780193		-8.214761		18.335190		-151.418160		21.441176		31.601491		22.597467		-52.894933		-4.052134		2.770657		35.074815		1.005532		-7.065532		44.036403		-27.254888		-3.706767		78.350052		99.506452		-1.973418		-10.377621		-3.595380		56.857003		-21.014480		10.499578		53.391189		115.377839		-21.090564		-12.357512		27.378624		
0.017045		-1.000956		-6.683357		88.251130		0.067440		1.739965		1.860360		86.115172		-2.695495		4.709929		-152.847477		24.004613		1.259986		11.299514		82.735262		-8.243308		18.340580		-151.340609		21.479761		31.642559		22.594316		-52.743567		-4.013346		2.805124		35.339990		1.005962		-7.083120		45.214572		-27.434389		-3.430497		78.486318		99.604708		-1.998690		-10.354852		-3.596073		57.980529		-20.946346		10.800018		53.299486		115.528389		-21.163813		-12.263581		27.333623		
0.019470		-0.955634		-6.844579		88.270756		0.067373		1.740074		1.858929		86.055303		-2.697486		4.653937		-152.803550		23.997801		1.176960		11.290630		82.645983		-8.266593		18.379638		-151.308693		21.563216		31.680672		22.605874		-52.606297		-3.951206		2.871379		35.355429		0.945055		-7.098801		46.409929		-27.863533		-2.879830		78.651669		99.744746		-2.075149		-10.314615		-3.573099		59.204763		-21.019164		11.540462		53.166286		115.859043		-21.354866		-12.141337		27.249640		
0.021894		-0.931887		-7.056876		88.282793		0.067274		1.740218		1.857484		86.044409		-2.721303		4.626585		-152.750344		23.982314		1.129793		11.283250		82.605436		-8.279494		18.381232		-151.251077		21.598650		31.700062		22.617893		-52.444289		-3.909732		2.901153		35.599455		0.945385		-7.129437		47.617255		-28.073217		-2.555898		78.771332		99.821899		-2.108509		-10.287548		-3.548362		60.357396		-20.943047		11.892838		53.052703		116.028879		-21.472914		-12.023963		27.183589		
0.024318		-0.919693		-7.286478		88.298505		0.067124		1.740331		1.856056		86.051237		-2.749125		4.614423		-152.694182		23.970991		1.074925		11.275675		82.585148		-8.272517		18.358375		-151.190954		21.631375		31.704944		22.640183		-52.260007		-3.869080		2.919716		35.821546		0.940084		-7.162057		48.852460		-28.332871		-2.158342		78.880774		99.914559		-2.078961		-10.249930		-3.491675		61.519591		-20.869139		12.271581		52.938359		116.217817		-21.537278		-11.900215		27.129358		
0.026742		-0.916889		-7.524235		88.326707		0.066956		1.740452		1.854647		86.029633		-2.741543		4.595921		-152.609953		23.955290		1.023895		11.267290		82.565720		-8.232049		18.295784		-151.106271		21.654668		31.710620		22.666086		-52.057324		-3.832190		2.930630		35.968913		0.929986		-7.192893		50.049408		-28.559603		-1.800580		78.992672		100.003546		-2.048448		-10.215791		-3.432560		62.647250		-20.788010		12.640118		52.875905		116.406136		-21.586511		-11.785132		27.077609		
0.029167		-0.929048		-7.765023		88.351445		0.066794		1.740530		1.853228		86.033595		-2.751386		4.599508		-152.548385		23.944785		0.961700		11.258347		82.560850		-8.195161		18.230250		-151.038144		21.670129		31.711046		22.698449		-51.851705		-3.804963		2.925700		36.117123		0.926412		-7.229520		51.283223		-28.773111		-1.426966		79.083251		100.103255		-2.007516		-10.171728		-3.362959		63.800159		-20.711895		13.027675		52.792653		116.606342		-21.623422		-11.647289		27.021743		
0.031591		-0.956680		-7.993661		88.357425		0.066610		1.740526		1.851761		86.076181		-2.814598		4.640773		-152.531366		23.942190		0.862305		11.245372		82.544488		-8.188747		18.184176		-151.005804		21.678886		31.696236		22.750513		-51.646133		-3.787457		2.913798		36.224184		0.924394		-7.274380		52.582438		-29.026729		-0.960678		79.146567		100.231719		-1.969235		-10.108150		-3.263425		65.005383		-20.701135		13.563604		52.658900		116.865422		-21.678231		-11.451709		26.942723		
0.034015		-0.991092		-8.189108		88.370885		0.066465		1.740501		1.850304		86.055503		-2.835803		4.662286		-152.521811		23.924559		0.721780		11.217747		82.505428		-8.167792		18.111954		-150.971161		21.677478		31.673409		22.853928		-51.455156		-3.780222		2.882513		36.166021		0.922084		-7.315790		53.853776		-29.296044		-0.445016		79.224504		100.373893		-2.022558		-10.048982		-3.112566		66.226776		-20.796398		14.325954		52.576147		117.171345		-21.859112		-11.165902		26.786235		
